<?xml version="1.0" encoding="UTF-8" standalone="no"?>
<svg width="209px" height="87px" viewBox="0 0 209 87" version="1.1" xmlns="http://www.w3.org/2000/svg" xmlns:xlink="http://www.w3.org/1999/xlink">
    <!-- Generator: Sketch 3.6.1 (26313) - http://www.bohemiancoding.com/sketch -->
    <title>Group</title>
    <desc>Created with Sketch.</desc>
    <defs></defs>
    <g id="Page-1" stroke="none" stroke-width="1" fill="none" fill-rule="evenodd">
        <g id="Group" transform="translate(2.000000, 2.000000)">
            <path d="M25.21875,51.15625 L25.21875,63.78125 L31.6875,63.78125 C34.6041813,63.78125 36.7968677,63.2552136 38.265625,62.203125 C39.7343823,61.1510364 40.46875,59.5833437 40.46875,57.5 C40.46875,55.3958228 39.7500072,53.8125053 38.3125,52.75 C36.8749928,51.6874947 34.7291809,51.15625 31.875,51.15625 L25.21875,51.15625 Z M25.21875,79.59375 L27.34375,79.59375 C28.5520894,79.59375 29.4062475,79.760415 29.90625,80.09375 C30.4062525,80.427085 30.65625,80.9791628 30.65625,81.75 C30.65625,82.5833375 30.4375022,83.166665 30,83.5 C29.5624978,83.833335 28.7395894,84 27.53125,84 L17.03125,84 C16.3229131,84 15.7812519,83.8072936 15.40625,83.421875 C15.0312481,83.0364564 14.84375,82.4791703 14.84375,81.75 C14.84375,80.9791628 15.0520813,80.427085 15.46875,80.09375 C15.8854187,79.760415 16.5729119,79.59375 17.53125,79.59375 L18.5625,79.59375 L20.375,79.59375 L20.375,51.15625 L18.5625,51.15625 C16.9999922,51.15625 15.9895856,51.0104181 15.53125,50.71875 C15.0729144,50.4270819 14.84375,49.8750041 14.84375,49.0625 C14.84375,48.3541631 15.0260398,47.8229184 15.390625,47.46875 C15.7552102,47.1145816 16.3020797,46.9375 17.03125,46.9375 L30.21875,46.9375 C33.4062659,46.9375 35.7864505,47.0885402 37.359375,47.390625 C38.9322995,47.6927098 40.2604113,48.2083297 41.34375,48.9375 C42.7395903,49.8750047 43.8385377,51.1145756 44.640625,52.65625 C45.4427123,54.1979244 45.84375,55.8541578 45.84375,57.625 C45.84375,60.0208453 45.1093823,62.0781164 43.640625,63.796875 C42.1718677,65.5156336 40.1250131,66.70833 37.5,67.375 C38.0416694,67.6875016 38.5260395,68.0520813 38.953125,68.46875 C39.3802105,68.8854187 39.7916647,69.3854137 40.1875,69.96875 L46.46875,79.59375 L47.5,79.59375 C48.6666725,79.59375 49.4687478,79.7552067 49.90625,80.078125 C50.3437522,80.4010433 50.5625,80.9583294 50.5625,81.75 C50.5625,82.4791703 50.3802102,83.0364564 50.015625,83.421875 C49.6510398,83.8072936 49.1145869,84 48.40625,84 L44.875,84 C43.8541616,84 42.8541716,83.2500075 41.875,81.75 C41.7499994,81.6249994 41.6562503,81.5208338 41.59375,81.4375 L35.59375,72.34375 C34.3645772,70.4895741 33.3489623,69.2916694 32.546875,68.75 C31.7447877,68.2083306 30.6875066,67.9375 29.375,67.9375 L25.21875,67.9375 L25.21875,79.59375 Z M71.7573864,80.40625 C74.9657358,80.40625 77.5959179,79.3906352 79.6480114,77.359375 C81.700105,75.3281148 82.7261364,72.7395991 82.7261364,69.59375 C82.7261364,66.4479009 81.6948968,63.8489686 79.6323864,61.796875 C77.5698761,59.7447814 74.9449024,58.71875 71.7573864,58.71875 C68.5698705,58.71875 65.950105,59.7447814 63.8980114,61.796875 C61.8459179,63.8489686 60.8198864,66.4479009 60.8198864,69.59375 C60.8198864,72.7604325 61.8407096,75.3541566 63.8823864,77.375 C65.9240633,79.3958434 68.5490371,80.40625 71.7573864,80.40625 L71.7573864,80.40625 Z M88.1636364,69.59375 C88.1636364,74.0521056 86.6428183,77.6979025 83.6011364,80.53125 C80.5594546,83.3645975 76.6115774,84.78125 71.7573864,84.78125 C66.9240289,84.78125 62.9865683,83.3645975 59.9448864,80.53125 C56.9032046,77.6979025 55.3823864,74.0521056 55.3823864,69.59375 C55.3823864,65.1353944 56.9032046,61.4948058 59.9448864,58.671875 C62.9865683,55.8489442 66.9240289,54.4375 71.7573864,54.4375 C76.5907439,54.4375 80.5334129,55.8541525 83.5855114,58.6875 C86.63761,61.5208475 88.1636364,65.1562278 88.1636364,69.59375 L88.1636364,69.59375 Z M113.014773,79.65625 C115.952288,79.65625 118.33768,78.7291759 120.171023,76.875 C122.004365,75.0208241 122.921023,72.6145981 122.921023,69.65625 C122.921023,66.7604022 121.988741,64.3750094 120.124148,62.5 C118.259555,60.6249906 115.889787,59.6875 113.014773,59.6875 C110.118925,59.6875 107.749157,60.6197823 105.905398,62.484375 C104.061639,64.3489677 103.139773,66.7395687 103.139773,69.65625 C103.139773,72.5729313 104.061639,74.9687406 105.905398,76.84375 C107.749157,78.7187594 110.118925,79.65625 113.014773,79.65625 L113.014773,79.65625 Z M103.264773,59.625 C104.431445,58.1666594 105.889764,57.0520872 107.639773,56.28125 C109.389782,55.5104128 111.368929,55.125 113.577273,55.125 C117.764794,55.125 121.254342,56.5364442 124.046023,59.359375 C126.837704,62.1823058 128.233523,65.6770625 128.233523,69.84375 C128.233523,73.9479372 126.801246,77.4270691 123.936648,80.28125 C121.07205,83.1354309 117.577294,84.5625 113.452273,84.5625 C111.264762,84.5625 109.358531,84.1770872 107.733523,83.40625 C106.108515,82.6354128 104.775195,81.4687578 103.733523,79.90625 L103.733523,82.40625 C103.733523,82.9687528 103.634566,83.3749988 103.436648,83.625 C103.23873,83.8750012 102.910609,84 102.452273,84 L96.7335229,84 C95.9210188,84 95.3168582,83.8125019 94.9210229,83.4375 C94.5251876,83.0624981 94.3272729,82.5000038 94.3272729,81.75 C94.3272729,80.9166625 94.5668538,80.3489598 95.0460229,80.046875 C95.525192,79.7447902 96.4730991,79.59375 97.8897729,79.59375 L98.5460229,79.59375 L98.5460229,47.59375 L97.9522729,47.59375 C96.5355991,47.59375 95.5668588,47.427085 95.0460229,47.09375 C94.525187,46.760415 94.2647729,46.1770875 94.2647729,45.34375 C94.2647729,44.5937462 94.4731041,44.0312519 94.8897729,43.65625 C95.3064416,43.2812481 95.9210188,43.09375 96.7335229,43.09375 L101.483523,43.09375 C102.108526,43.09375 102.561646,43.1979156 102.842898,43.40625 C103.124149,43.6145844 103.264773,43.9374978 103.264773,44.375 L103.264773,59.625 Z M150.897159,80.40625 C154.105509,80.40625 156.735691,79.3906352 158.787784,77.359375 C160.839878,75.3281148 161.865909,72.7395991 161.865909,69.59375 C161.865909,66.4479009 160.83467,63.8489686 158.772159,61.796875 C156.709649,59.7447814 154.084675,58.71875 150.897159,58.71875 C147.709643,58.71875 145.089878,59.7447814 143.037784,61.796875 C140.985691,63.8489686 139.959659,66.4479009 139.959659,69.59375 C139.959659,72.7604325 140.980482,75.3541566 143.022159,77.375 C145.063836,79.3958434 147.68881,80.40625 150.897159,80.40625 L150.897159,80.40625 Z M167.303409,69.59375 C167.303409,74.0521056 165.782591,77.6979025 162.740909,80.53125 C159.699227,83.3645975 155.75135,84.78125 150.897159,84.78125 C146.063802,84.78125 142.126341,83.3645975 139.084659,80.53125 C136.042977,77.6979025 134.522159,74.0521056 134.522159,69.59375 C134.522159,65.1353944 136.042977,61.4948058 139.084659,58.671875 C142.126341,55.8489442 146.063802,54.4375 150.897159,54.4375 C155.730517,54.4375 159.673186,55.8541525 162.725284,58.6875 C165.777383,61.5208475 167.303409,65.1562278 167.303409,69.59375 L167.303409,69.59375 Z M198.998296,56.875 C200.019134,56.875 200.763918,57.0520816 201.232671,57.40625 C201.701423,57.7604184 201.935796,58.3229128 201.935796,59.09375 C201.935796,59.8229203 201.717048,60.3697898 201.279546,60.734375 C200.842044,61.0989602 200.1858,61.28125 199.310796,61.28125 L186.654546,61.28125 L186.654546,71.71875 C186.654546,75.1354338 187.09725,77.3854113 187.982671,78.46875 C188.868092,79.5520887 190.383702,80.09375 192.529546,80.09375 C194.425389,80.09375 196.696199,79.5416722 199.342046,78.4375 C201.987892,77.3333278 203.623293,76.78125 204.248296,76.78125 C204.831632,76.78125 205.326419,76.9895813 205.732671,77.40625 C206.138923,77.8229187 206.342046,78.3333303 206.342046,78.9375 C206.342046,79.6250034 206.08684,80.2239558 205.576421,80.734375 C205.066002,81.2447942 204.196219,81.7395809 202.967046,82.21875 C200.925369,83.0312541 199.086846,83.6249981 197.451421,84 C195.815996,84.3750019 194.279553,84.5625 192.842046,84.5625 C190.404534,84.5625 188.357679,84.1718789 186.701421,83.390625 C185.045163,82.6093711 183.8108,81.4479244 182.998296,79.90625 C182.581627,79.1770797 182.284755,78.312505 182.107671,77.3125 C181.930587,76.312495 181.842046,74.7708437 181.842046,72.6875 L181.842046,71.71875 L181.842046,61.28125 L176.529546,61.28125 C175.654541,61.28125 175.019131,61.1093767 174.623296,60.765625 C174.22746,60.4218733 174.029546,59.8645872 174.029546,59.09375 C174.029546,58.2395791 174.300376,57.6562516 174.842046,57.34375 C175.383715,57.0312484 176.539954,56.875 178.310796,56.875 L181.842046,56.875 L181.842046,50.46875 L181.842046,48.8125 C181.842046,47.9166622 182.034752,47.2552105 182.420171,46.828125 C182.805589,46.4010395 183.404542,46.1875 184.217046,46.1875 C185.133717,46.1875 185.769127,46.4479141 186.123296,46.96875 C186.477464,47.4895859 186.654546,48.6770741 186.654546,50.53125 L186.654546,56.875 L198.998296,56.875 Z" id="Robot" fill="#808080"></path>
            <path d="M50.9550781,45.6660156 C31.2971519,54.79338 13.531445,64.1730901 0.60546875,81.953125" id="Path-16" stroke="#000000" stroke-width="4" stroke-linecap="round"></path>
            <path d="M36,26.0970632 C39.1184896,23.1458913 42.4994959,20.4494502 45.3554687,17.2435476 C46.7315939,15.6988119 55.5996094,5.37997774 55.5996094,0.575578836 C55.5996094,-0.234968039 53.5342121,-0.147506236 53.1679688,0.575578836 C43.5175718,19.6286412 46.7313419,42.1048692 71.1835938,39.6615163" id="Path-22" stroke="#000000" stroke-width="4" stroke-linecap="round"></path>
        </g>
    </g>
</svg>