<?xml version="1.0" encoding="UTF-8" standalone="no"?>
<svg width="201px" height="85px" viewBox="0 0 201 85" version="1.1" xmlns="http://www.w3.org/2000/svg" xmlns:xlink="http://www.w3.org/1999/xlink">
    <!-- Generator: Sketch 3.6.1 (26313) - http://www.bohemiancoding.com/sketch -->
    <title>Group</title>
    <desc>Created with Sketch.</desc>
    <defs></defs>
    <g id="Page-1" stroke="none" stroke-width="1" fill="none" fill-rule="evenodd">
        <g id="Group" transform="translate(2.000000, 0.000000)">
            <path d="M17.21875,51.15625 L17.21875,63.78125 L23.6875,63.78125 C26.6041813,63.78125 28.7968677,63.2552136 30.265625,62.203125 C31.7343823,61.1510364 32.46875,59.5833437 32.46875,57.5 C32.46875,55.3958228 31.7500072,53.8125053 30.3125,52.75 C28.8749928,51.6874947 26.7291809,51.15625 23.875,51.15625 L17.21875,51.15625 Z M17.21875,79.59375 L19.34375,79.59375 C20.5520894,79.59375 21.4062475,79.760415 21.90625,80.09375 C22.4062525,80.427085 22.65625,80.9791628 22.65625,81.75 C22.65625,82.5833375 22.4375022,83.166665 22,83.5 C21.5624978,83.833335 20.7395894,84 19.53125,84 L9.03125,84 C8.32291313,84 7.78125188,83.8072936 7.40625,83.421875 C7.03124812,83.0364564 6.84375,82.4791703 6.84375,81.75 C6.84375,80.9791628 7.05208125,80.427085 7.46875,80.09375 C7.88541875,79.760415 8.57291187,79.59375 9.53125,79.59375 L10.5625,79.59375 L12.375,79.59375 L12.375,51.15625 L10.5625,51.15625 C8.99999219,51.15625 7.98958563,51.0104181 7.53125,50.71875 C7.07291437,50.4270819 6.84375,49.8750041 6.84375,49.0625 C6.84375,48.3541631 7.02603984,47.8229184 7.390625,47.46875 C7.75521016,47.1145816 8.30207969,46.9375 9.03125,46.9375 L22.21875,46.9375 C25.4062659,46.9375 27.7864505,47.0885402 29.359375,47.390625 C30.9322995,47.6927098 32.2604113,48.2083297 33.34375,48.9375 C34.7395903,49.8750047 35.8385377,51.1145756 36.640625,52.65625 C37.4427123,54.1979244 37.84375,55.8541578 37.84375,57.625 C37.84375,60.0208453 37.1093823,62.0781164 35.640625,63.796875 C34.1718677,65.5156336 32.1250131,66.70833 29.5,67.375 C30.0416694,67.6875016 30.5260395,68.0520813 30.953125,68.46875 C31.3802105,68.8854187 31.7916647,69.3854137 32.1875,69.96875 L38.46875,79.59375 L39.5,79.59375 C40.6666725,79.59375 41.4687478,79.7552067 41.90625,80.078125 C42.3437522,80.4010433 42.5625,80.9583294 42.5625,81.75 C42.5625,82.4791703 42.3802102,83.0364564 42.015625,83.421875 C41.6510398,83.8072936 41.1145869,84 40.40625,84 L36.875,84 C35.8541616,84 34.8541716,83.2500075 33.875,81.75 C33.7499994,81.6249994 33.6562503,81.5208338 33.59375,81.4375 L27.59375,72.34375 C26.3645772,70.4895741 25.3489623,69.2916694 24.546875,68.75 C23.7447877,68.2083306 22.6875066,67.9375 21.375,67.9375 L17.21875,67.9375 L17.21875,79.59375 Z M63.7573864,80.40625 C66.9657358,80.40625 69.5959179,79.3906352 71.6480114,77.359375 C73.700105,75.3281148 74.7261364,72.7395991 74.7261364,69.59375 C74.7261364,66.4479009 73.6948968,63.8489686 71.6323864,61.796875 C69.5698761,59.7447814 66.9449024,58.71875 63.7573864,58.71875 C60.5698705,58.71875 57.950105,59.7447814 55.8980114,61.796875 C53.8459179,63.8489686 52.8198864,66.4479009 52.8198864,69.59375 C52.8198864,72.7604325 53.8407096,75.3541566 55.8823864,77.375 C57.9240633,79.3958434 60.5490371,80.40625 63.7573864,80.40625 L63.7573864,80.40625 Z M80.1636364,69.59375 C80.1636364,74.0521056 78.6428183,77.6979025 75.6011364,80.53125 C72.5594546,83.3645975 68.6115774,84.78125 63.7573864,84.78125 C58.9240289,84.78125 54.9865683,83.3645975 51.9448864,80.53125 C48.9032046,77.6979025 47.3823864,74.0521056 47.3823864,69.59375 C47.3823864,65.1353944 48.9032046,61.4948058 51.9448864,58.671875 C54.9865683,55.8489442 58.9240289,54.4375 63.7573864,54.4375 C68.5907439,54.4375 72.5334129,55.8541525 75.5855114,58.6875 C78.63761,61.5208475 80.1636364,65.1562278 80.1636364,69.59375 L80.1636364,69.59375 Z M105.014773,79.65625 C107.952288,79.65625 110.33768,78.7291759 112.171023,76.875 C114.004365,75.0208241 114.921023,72.6145981 114.921023,69.65625 C114.921023,66.7604022 113.988741,64.3750094 112.124148,62.5 C110.259555,60.6249906 107.889787,59.6875 105.014773,59.6875 C102.118925,59.6875 99.7491571,60.6197823 97.9053979,62.484375 C96.0616387,64.3489677 95.1397729,66.7395687 95.1397729,69.65625 C95.1397729,72.5729313 96.0616387,74.9687406 97.9053979,76.84375 C99.7491571,78.7187594 102.118925,79.65625 105.014773,79.65625 L105.014773,79.65625 Z M95.2647729,59.625 C96.4314454,58.1666594 97.8897641,57.0520872 99.6397729,56.28125 C101.389782,55.5104128 103.368929,55.125 105.577273,55.125 C109.764794,55.125 113.254342,56.5364442 116.046023,59.359375 C118.837704,62.1823058 120.233523,65.6770625 120.233523,69.84375 C120.233523,73.9479372 118.801246,77.4270691 115.936648,80.28125 C113.07205,83.1354309 109.577294,84.5625 105.452273,84.5625 C103.264762,84.5625 101.358531,84.1770872 99.7335229,83.40625 C98.1085148,82.6354128 96.7751948,81.4687578 95.7335229,79.90625 L95.7335229,82.40625 C95.7335229,82.9687528 95.6345655,83.3749988 95.4366479,83.625 C95.2387302,83.8750012 94.9106085,84 94.4522729,84 L88.7335229,84 C87.9210188,84 87.3168582,83.8125019 86.9210229,83.4375 C86.5251876,83.0624981 86.3272729,82.5000038 86.3272729,81.75 C86.3272729,80.9166625 86.5668538,80.3489598 87.0460229,80.046875 C87.525192,79.7447902 88.4730991,79.59375 89.8897729,79.59375 L90.5460229,79.59375 L90.5460229,47.59375 L89.9522729,47.59375 C88.5355991,47.59375 87.5668588,47.427085 87.0460229,47.09375 C86.525187,46.760415 86.2647729,46.1770875 86.2647729,45.34375 C86.2647729,44.5937462 86.4731041,44.0312519 86.8897729,43.65625 C87.3064416,43.2812481 87.9210188,43.09375 88.7335229,43.09375 L93.4835229,43.09375 C94.108526,43.09375 94.5616465,43.1979156 94.8428979,43.40625 C95.1241493,43.6145844 95.2647729,43.9374978 95.2647729,44.375 L95.2647729,59.625 Z M142.897159,80.40625 C146.105509,80.40625 148.735691,79.3906352 150.787784,77.359375 C152.839878,75.3281148 153.865909,72.7395991 153.865909,69.59375 C153.865909,66.4479009 152.83467,63.8489686 150.772159,61.796875 C148.709649,59.7447814 146.084675,58.71875 142.897159,58.71875 C139.709643,58.71875 137.089878,59.7447814 135.037784,61.796875 C132.985691,63.8489686 131.959659,66.4479009 131.959659,69.59375 C131.959659,72.7604325 132.980482,75.3541566 135.022159,77.375 C137.063836,79.3958434 139.68881,80.40625 142.897159,80.40625 L142.897159,80.40625 Z M159.303409,69.59375 C159.303409,74.0521056 157.782591,77.6979025 154.740909,80.53125 C151.699227,83.3645975 147.75135,84.78125 142.897159,84.78125 C138.063802,84.78125 134.126341,83.3645975 131.084659,80.53125 C128.042977,77.6979025 126.522159,74.0521056 126.522159,69.59375 C126.522159,65.1353944 128.042977,61.4948058 131.084659,58.671875 C134.126341,55.8489442 138.063802,54.4375 142.897159,54.4375 C147.730517,54.4375 151.673186,55.8541525 154.725284,58.6875 C157.777383,61.5208475 159.303409,65.1562278 159.303409,69.59375 L159.303409,69.59375 Z M190.998296,56.875 C192.019134,56.875 192.763918,57.0520816 193.232671,57.40625 C193.701423,57.7604184 193.935796,58.3229128 193.935796,59.09375 C193.935796,59.8229203 193.717048,60.3697898 193.279546,60.734375 C192.842044,61.0989602 192.1858,61.28125 191.310796,61.28125 L178.654546,61.28125 L178.654546,71.71875 C178.654546,75.1354338 179.09725,77.3854113 179.982671,78.46875 C180.868092,79.5520887 182.383702,80.09375 184.529546,80.09375 C186.425389,80.09375 188.696199,79.5416722 191.342046,78.4375 C193.987892,77.3333278 195.623293,76.78125 196.248296,76.78125 C196.831632,76.78125 197.326419,76.9895813 197.732671,77.40625 C198.138923,77.8229187 198.342046,78.3333303 198.342046,78.9375 C198.342046,79.6250034 198.08684,80.2239558 197.576421,80.734375 C197.066002,81.2447942 196.196219,81.7395809 194.967046,82.21875 C192.925369,83.0312541 191.086846,83.6249981 189.451421,84 C187.815996,84.3750019 186.279553,84.5625 184.842046,84.5625 C182.404534,84.5625 180.357679,84.1718789 178.701421,83.390625 C177.045163,82.6093711 175.8108,81.4479244 174.998296,79.90625 C174.581627,79.1770797 174.284755,78.312505 174.107671,77.3125 C173.930587,76.312495 173.842046,74.7708437 173.842046,72.6875 L173.842046,71.71875 L173.842046,61.28125 L168.529546,61.28125 C167.654541,61.28125 167.019131,61.1093767 166.623296,60.765625 C166.22746,60.4218733 166.029546,59.8645872 166.029546,59.09375 C166.029546,58.2395791 166.300376,57.6562516 166.842046,57.34375 C167.383715,57.0312484 168.539954,56.875 170.310796,56.875 L173.842046,56.875 L173.842046,50.46875 L173.842046,48.8125 C173.842046,47.9166622 174.034752,47.2552105 174.420171,46.828125 C174.805589,46.4010395 175.404542,46.1875 176.217046,46.1875 C177.133717,46.1875 177.769127,46.4479141 178.123296,46.96875 C178.477464,47.4895859 178.654546,48.6770741 178.654546,50.53125 L178.654546,56.875 L190.998296,56.875 Z" id="Robot" fill="#000000"></path>
            <path d="M53.96875,25.40625 C53.96875,23.8437422 54.1249984,22.8333356 54.4375,22.375 C54.7500016,21.9166644 55.3437456,21.6875 56.21875,21.6875 C56.9687538,21.6875 57.5312481,21.8802064 57.90625,22.265625 C58.2812519,22.6510436 58.46875,23.2499959 58.46875,24.0625 L58.46875,25.40625 L58.46875,35.6875 C58.46875,36.4166703 58.2708353,36.984373 57.875,37.390625 C57.4791647,37.796877 56.9270869,38 56.21875,38 L28.5,38 L27.03125,38 C26.2812462,38 25.7187519,37.8125019 25.34375,37.4375 C24.9687481,37.0624981 24.78125,36.5000038 24.78125,35.75 C24.78125,34.9166625 25.0052061,34.3489598 25.453125,34.046875 C25.9010439,33.7447902 26.9166588,33.59375 28.5,33.59375 L32.40625,33.59375 L32.40625,5.4375 L28.5,5.4375 C26.9583256,5.4375 25.9531273,5.27604328 25.484375,4.953125 C25.0156227,4.63020672 24.78125,4.04167094 24.78125,3.1875 C24.78125,2.41666281 24.9739564,1.84896016 25.359375,1.484375 C25.7447936,1.11978984 26.3437459,0.9375 27.15625,0.9375 L28.5,0.9375 L42.59375,0.9375 L44.0625,0.9375 C44.8125038,0.9375 45.3854147,1.12499812 45.78125,1.5 C46.1770853,1.87500188 46.375,2.43749625 46.375,3.1875 C46.375,4.04167094 46.1406273,4.63020672 45.671875,4.953125 C45.2031227,5.27604328 44.1770912,5.4375 42.59375,5.4375 L37.34375,5.4375 L37.34375,33.59375 L53.96875,33.59375 L53.96875,25.40625 Z" id="L" fill="#000000"></path>
            <path d="M42,46 L0,82" id="Line" stroke="#000000" stroke-width="4" stroke-linecap="round"></path>
        </g>
    </g>
</svg>