<?xml version="1.0" encoding="UTF-8" standalone="no"?>
<svg width="252px" height="120px" viewBox="0 0 252 120" version="1.1" xmlns="http://www.w3.org/2000/svg" xmlns:xlink="http://www.w3.org/1999/xlink">
    <!-- Generator: Sketch 3.6.1 (26313) - http://www.bohemiancoding.com/sketch -->
    <title>Slice 1</title>
    <desc>Created with Sketch.</desc>
    <defs></defs>
    <g id="Page-1" stroke="none" stroke-width="1" fill="none" fill-rule="evenodd">
        <path d="M43.21875,65.15625 L43.21875,77.78125 L49.6875,77.78125 C52.6041813,77.78125 54.7968677,77.2552136 56.265625,76.203125 C57.7343823,75.1510364 58.46875,73.5833437 58.46875,71.5 C58.46875,69.3958228 57.7500072,67.8125053 56.3125,66.75 C54.8749928,65.6874947 52.7291809,65.15625 49.875,65.15625 L43.21875,65.15625 Z M43.21875,93.59375 L45.34375,93.59375 C46.5520894,93.59375 47.4062475,93.760415 47.90625,94.09375 C48.4062525,94.427085 48.65625,94.9791628 48.65625,95.75 C48.65625,96.5833375 48.4375022,97.166665 48,97.5 C47.5624978,97.833335 46.7395894,98 45.53125,98 L35.03125,98 C34.3229131,98 33.7812519,97.8072936 33.40625,97.421875 C33.0312481,97.0364564 32.84375,96.4791703 32.84375,95.75 C32.84375,94.9791628 33.0520813,94.427085 33.46875,94.09375 C33.8854187,93.760415 34.5729119,93.59375 35.53125,93.59375 L36.5625,93.59375 L38.375,93.59375 L38.375,65.15625 L36.5625,65.15625 C34.9999922,65.15625 33.9895856,65.0104181 33.53125,64.71875 C33.0729144,64.4270819 32.84375,63.8750041 32.84375,63.0625 C32.84375,62.3541631 33.0260398,61.8229184 33.390625,61.46875 C33.7552102,61.1145816 34.3020797,60.9375 35.03125,60.9375 L48.21875,60.9375 C51.4062659,60.9375 53.7864505,61.0885402 55.359375,61.390625 C56.9322995,61.6927098 58.2604113,62.2083297 59.34375,62.9375 C60.7395903,63.8750047 61.8385377,65.1145756 62.640625,66.65625 C63.4427123,68.1979244 63.84375,69.8541578 63.84375,71.625 C63.84375,74.0208453 63.1093823,76.0781164 61.640625,77.796875 C60.1718677,79.5156336 58.1250131,80.70833 55.5,81.375 C56.0416694,81.6875016 56.5260395,82.0520813 56.953125,82.46875 C57.3802105,82.8854187 57.7916647,83.3854137 58.1875,83.96875 L64.46875,93.59375 L65.5,93.59375 C66.6666725,93.59375 67.4687478,93.7552067 67.90625,94.078125 C68.3437522,94.4010433 68.5625,94.9583294 68.5625,95.75 C68.5625,96.4791703 68.3802102,97.0364564 68.015625,97.421875 C67.6510398,97.8072936 67.1145869,98 66.40625,98 L62.875,98 C61.8541616,98 60.8541716,97.2500075 59.875,95.75 C59.7499994,95.6249994 59.6562503,95.5208338 59.59375,95.4375 L53.59375,86.34375 C52.3645772,84.4895741 51.3489623,83.2916694 50.546875,82.75 C49.7447877,82.2083306 48.6875066,81.9375 47.375,81.9375 L43.21875,81.9375 L43.21875,93.59375 Z M89.7573864,94.40625 C92.9657358,94.40625 95.5959179,93.3906352 97.6480114,91.359375 C99.700105,89.3281148 100.726136,86.7395991 100.726136,83.59375 C100.726136,80.4479009 99.6948968,77.8489686 97.6323864,75.796875 C95.5698761,73.7447814 92.9449024,72.71875 89.7573864,72.71875 C86.5698705,72.71875 83.950105,73.7447814 81.8980114,75.796875 C79.8459179,77.8489686 78.8198864,80.4479009 78.8198864,83.59375 C78.8198864,86.7604325 79.8407096,89.3541566 81.8823864,91.375 C83.9240633,93.3958434 86.5490371,94.40625 89.7573864,94.40625 L89.7573864,94.40625 Z M106.163636,83.59375 C106.163636,88.0521056 104.642818,91.6979025 101.601136,94.53125 C98.5594546,97.3645975 94.6115774,98.78125 89.7573864,98.78125 C84.9240289,98.78125 80.9865683,97.3645975 77.9448864,94.53125 C74.9032046,91.6979025 73.3823864,88.0521056 73.3823864,83.59375 C73.3823864,79.1353944 74.9032046,75.4948058 77.9448864,72.671875 C80.9865683,69.8489442 84.9240289,68.4375 89.7573864,68.4375 C94.5907439,68.4375 98.5334129,69.8541525 101.585511,72.6875 C104.63761,75.5208475 106.163636,79.1562278 106.163636,83.59375 L106.163636,83.59375 Z M131.014773,93.65625 C133.952288,93.65625 136.33768,92.7291759 138.171023,90.875 C140.004365,89.0208241 140.921023,86.6145981 140.921023,83.65625 C140.921023,80.7604022 139.988741,78.3750094 138.124148,76.5 C136.259555,74.6249906 133.889787,73.6875 131.014773,73.6875 C128.118925,73.6875 125.749157,74.6197823 123.905398,76.484375 C122.061639,78.3489677 121.139773,80.7395687 121.139773,83.65625 C121.139773,86.5729313 122.061639,88.9687406 123.905398,90.84375 C125.749157,92.7187594 128.118925,93.65625 131.014773,93.65625 L131.014773,93.65625 Z M121.264773,73.625 C122.431445,72.1666594 123.889764,71.0520872 125.639773,70.28125 C127.389782,69.5104128 129.368929,69.125 131.577273,69.125 C135.764794,69.125 139.254342,70.5364442 142.046023,73.359375 C144.837704,76.1823058 146.233523,79.6770625 146.233523,83.84375 C146.233523,87.9479372 144.801246,91.4270691 141.936648,94.28125 C139.07205,97.1354309 135.577294,98.5625 131.452273,98.5625 C129.264762,98.5625 127.358531,98.1770872 125.733523,97.40625 C124.108515,96.6354128 122.775195,95.4687578 121.733523,93.90625 L121.733523,96.40625 C121.733523,96.9687528 121.634566,97.3749988 121.436648,97.625 C121.23873,97.8750012 120.910609,98 120.452273,98 L114.733523,98 C113.921019,98 113.316858,97.8125019 112.921023,97.4375 C112.525188,97.0624981 112.327273,96.5000038 112.327273,95.75 C112.327273,94.9166625 112.566854,94.3489598 113.046023,94.046875 C113.525192,93.7447902 114.473099,93.59375 115.889773,93.59375 L116.546023,93.59375 L116.546023,61.59375 L115.952273,61.59375 C114.535599,61.59375 113.566859,61.427085 113.046023,61.09375 C112.525187,60.760415 112.264773,60.1770875 112.264773,59.34375 C112.264773,58.5937462 112.473104,58.0312519 112.889773,57.65625 C113.306442,57.2812481 113.921019,57.09375 114.733523,57.09375 L119.483523,57.09375 C120.108526,57.09375 120.561646,57.1979156 120.842898,57.40625 C121.124149,57.6145844 121.264773,57.9374978 121.264773,58.375 L121.264773,73.625 Z M168.897159,94.40625 C172.105509,94.40625 174.735691,93.3906352 176.787784,91.359375 C178.839878,89.3281148 179.865909,86.7395991 179.865909,83.59375 C179.865909,80.4479009 178.83467,77.8489686 176.772159,75.796875 C174.709649,73.7447814 172.084675,72.71875 168.897159,72.71875 C165.709643,72.71875 163.089878,73.7447814 161.037784,75.796875 C158.985691,77.8489686 157.959659,80.4479009 157.959659,83.59375 C157.959659,86.7604325 158.980482,89.3541566 161.022159,91.375 C163.063836,93.3958434 165.68881,94.40625 168.897159,94.40625 L168.897159,94.40625 Z M185.303409,83.59375 C185.303409,88.0521056 183.782591,91.6979025 180.740909,94.53125 C177.699227,97.3645975 173.75135,98.78125 168.897159,98.78125 C164.063802,98.78125 160.126341,97.3645975 157.084659,94.53125 C154.042977,91.6979025 152.522159,88.0521056 152.522159,83.59375 C152.522159,79.1353944 154.042977,75.4948058 157.084659,72.671875 C160.126341,69.8489442 164.063802,68.4375 168.897159,68.4375 C173.730517,68.4375 177.673186,69.8541525 180.725284,72.6875 C183.777383,75.5208475 185.303409,79.1562278 185.303409,83.59375 L185.303409,83.59375 Z M216.998296,70.875 C218.019134,70.875 218.763918,71.0520816 219.232671,71.40625 C219.701423,71.7604184 219.935796,72.3229128 219.935796,73.09375 C219.935796,73.8229203 219.717048,74.3697898 219.279546,74.734375 C218.842044,75.0989602 218.1858,75.28125 217.310796,75.28125 L204.654546,75.28125 L204.654546,85.71875 C204.654546,89.1354338 205.09725,91.3854113 205.982671,92.46875 C206.868092,93.5520887 208.383702,94.09375 210.529546,94.09375 C212.425389,94.09375 214.696199,93.5416722 217.342046,92.4375 C219.987892,91.3333278 221.623293,90.78125 222.248296,90.78125 C222.831632,90.78125 223.326419,90.9895813 223.732671,91.40625 C224.138923,91.8229187 224.342046,92.3333303 224.342046,92.9375 C224.342046,93.6250034 224.08684,94.2239558 223.576421,94.734375 C223.066002,95.2447942 222.196219,95.7395809 220.967046,96.21875 C218.925369,97.0312541 217.086846,97.6249981 215.451421,98 C213.815996,98.3750019 212.279553,98.5625 210.842046,98.5625 C208.404534,98.5625 206.357679,98.1718789 204.701421,97.390625 C203.045163,96.6093711 201.8108,95.4479244 200.998296,93.90625 C200.581627,93.1770797 200.284755,92.312505 200.107671,91.3125 C199.930587,90.312495 199.842046,88.7708437 199.842046,86.6875 L199.842046,85.71875 L199.842046,75.28125 L194.529546,75.28125 C193.654541,75.28125 193.019131,75.1093767 192.623296,74.765625 C192.22746,74.4218733 192.029546,73.8645872 192.029546,73.09375 C192.029546,72.2395791 192.300376,71.6562516 192.842046,71.34375 C193.383715,71.0312484 194.539954,70.875 196.310796,70.875 L199.842046,70.875 L199.842046,64.46875 L199.842046,62.8125 C199.842046,61.9166622 200.034752,61.2552105 200.420171,60.828125 C200.805589,60.4010395 201.404542,60.1875 202.217046,60.1875 C203.133717,60.1875 203.769127,60.4479141 204.123296,60.96875 C204.477464,61.4895859 204.654546,62.6770741 204.654546,64.53125 L204.654546,70.875 L216.998296,70.875 Z" id="Robot" fill="#2C2D2E"></path>
        <path d="M79.96875,39.40625 C79.96875,37.8437422 80.1249984,36.8333356 80.4375,36.375 C80.7500016,35.9166644 81.3437456,35.6875 82.21875,35.6875 C82.9687538,35.6875 83.5312481,35.8802064 83.90625,36.265625 C84.2812519,36.6510436 84.46875,37.2499959 84.46875,38.0625 L84.46875,39.40625 L84.46875,49.6875 C84.46875,50.4166703 84.2708353,50.984373 83.875,51.390625 C83.4791647,51.796877 82.9270869,52 82.21875,52 L54.5,52 L53.03125,52 C52.2812462,52 51.7187519,51.8125019 51.34375,51.4375 C50.9687481,51.0624981 50.78125,50.5000038 50.78125,49.75 C50.78125,48.9166625 51.0052061,48.3489598 51.453125,48.046875 C51.9010439,47.7447902 52.9166588,47.59375 54.5,47.59375 L58.40625,47.59375 L58.40625,19.4375 L54.5,19.4375 C52.9583256,19.4375 51.9531273,19.2760433 51.484375,18.953125 C51.0156227,18.6302067 50.78125,18.0416709 50.78125,17.1875 C50.78125,16.4166628 50.9739564,15.8489602 51.359375,15.484375 C51.7447936,15.1197898 52.3437459,14.9375 53.15625,14.9375 L54.5,14.9375 L68.59375,14.9375 L70.0625,14.9375 C70.8125038,14.9375 71.3854147,15.1249981 71.78125,15.5 C72.1770853,15.8750019 72.375,16.4374963 72.375,17.1875 C72.375,18.0416709 72.1406273,18.6302067 71.671875,18.953125 C71.2031227,19.2760433 70.1770912,19.4375 68.59375,19.4375 L63.34375,19.4375 L63.34375,47.59375 L79.96875,47.59375 L79.96875,39.40625 Z" id="L" fill="#2C2D2E"></path>
        <path d="M68,59 L26,95" id="Line" stroke="#000000" stroke-width="4" stroke-linecap="round"></path>
    </g>
</svg>